<?xml version="1.0" encoding="utf-8"?>
<!-- Generator: Adobe Illustrator 19.1.0, SVG Export Plug-In . SVG Version: 6.00 Build 0)  -->
<svg version="1.1" id="Layer_1" xmlns="http://www.w3.org/2000/svg" xmlns:xlink="http://www.w3.org/1999/xlink" x="0px" y="0px"
	 viewBox="0 0 100 100" style="enable-background:new 0 0 100 100;" xml:space="preserve">
<style type="text/css">
	.st0{fill:#F5E451;}
	.st1{fill:#F3BA1E;}
	.st2{fill:#F0B81C;}
	.st3{fill:#F5E450;}
	.st4{fill:#F4E250;}
	.st5{fill:#F5E24F;}
	.st6{fill:#EEB41E;}
	.st7{fill:#3F3F47;}
	.st8{fill:#F3BB1E;}
	.st9{fill:#FDF5A5;}
	.st10{fill:#2D2C2D;}
	.st11{fill:#9A5424;}
	.st12{fill:#DD9427;}
	.st13{fill:#E0A326;}
	.st14{fill:#FFFFFF;}
	.st15{fill:#C32527;}
	.st16{fill:#0F0E10;}
	.st17{fill:#E45B41;}
</style>
<g>
	<path class="st0" d="M58.7,49.1c1.2,5.2,2.3,10.5,3.5,15.7c-2.1,16.9-3.7,18.4-20.5,19.5c-3.6,0.2-7.3,1.4-10.6,1
		c-6.6-0.7-14.1-1.7-12.2-11.7c5.1-6.5,1.3-15,4.7-21.9c0.9-0.6,2.1-1.4,3-1C37.6,55.3,48.2,53.5,58.7,49.1z"/>
	<path class="st1" d="M58.7,49.1c-10.9,12.4-15.6,12.7-35.1,2.6C23,47,17.1,44,19,38.4c9.3-5.1,19-4.5,28.7-1.3
		c2.4,1.1,4.3,1,5.3-1.9c0.6-1.4,1.6-2.5,3-3C60.7,37.2,56.7,43.6,58.7,49.1z"/>
	<path class="st2" d="M18.8,73.6c0.5,4.2,3.4,5.6,7,7.1c7.6,3,14.8,0.1,22.2-0.4c10.4-0.7,9-10.9,14.2-15.5
		c0.4,3.8,3.5,6.8,2.7,10.9c0.9,0.5,1.4,1.2,1.6,2.1c0.3,5.8-2,9.9-8,11.1c-1.3,1.6-3,2.5-4.9,2.9c-9.2-5.3-17.7-6.4-27.9-0.3
		c-7.4,4.4-2.2-8.5-8.4-9.4C16.1,82,15.8,76.1,18.8,73.6z"/>
	<path class="st3" d="M69.5,38.8c2.3-4.3,6.4-6.7,10.3-9c3.7-2.2,5.4-9.3,11-6.2c5.4,2.9,6.9,9.8,7.2,14.9
		c0.5,8.2-8.6,7.5-13.6,10.7C77.6,48.2,69.3,49.7,69.5,38.8z"/>
	<path class="st4" d="M47.1,38.6c-9.4-0.1-18.7-0.1-28.1-0.2c1.5-2.1,3.1-4.2,4.6-6.3c0.5-0.7,0.4-1.4-0.4-1.8
		c-2.8-1.2-3-2.9-0.8-4.9c1.4-0.7,1.6-2.6,3.1-3.3c1-0.4,2-0.5,3-0.4c3.9,1.2,8.3-0.4,12.1,1.8c0.9,0.5,1.6,1.2,2.3,2
		c1.3,2.6,2.9,5.1,5.7,6.4c0.8,0.7,1.3,1.5,1.7,2.4c0.2,1.6-0.5,2.9-1.7,3.9C48.1,38.3,47.6,38.4,47.1,38.6z"/>
	<path class="st5" d="M40.9,28.1c-0.1-1-0.2-2-0.4-3c-1.5-2-1.9-4.1-0.9-6.5c6.9,0.9,13.4-0.3,19.3-4.3c2.3-1.1,4.9-1.6,6.3,0.9
		c2,3.4-0.7,5.7-3,7.8c-3.2,2.2-7.5,3.8-6.4,9c0,1.4-0.1,2.8-0.1,4.2c-0.6,0.8-1.3,1.1-2.3,1.2c-2-0.3-3-1.9-4.1-3.2
		c-0.8,0-1.6-0.1-2.4-0.1C45.1,32.1,43.1,30,40.9,28.1z"/>
	<path class="st6" d="M69.5,38.8c3.1,6.1,10.6,6,14.9,10.4c-3.3,2.4-9.2,3.2-5.6,9.8c2.9,5.3-1.5,5.7-5,6.5c-2.4-1-3.5-2.6-2.6-5.3
		c1.2-2.2,1.1-4.2-1.1-5.7C62.7,49.6,63.2,44.3,69.5,38.8z"/>
	<path class="st7" d="M62.4,23.1c0.7-3.6,5.8-9-3.4-8.8c0.3-0.3,0.5-0.7,0.8-0.8c4.9-1.3,11.9-6.7,14.1,0.1
		C76,20.4,68,21.8,62.4,23.1z"/>
	<path class="st8" d="M25.4,23.8c-1,0.5-2,1-2.9,1.5c-1.3-3.4-4-6.5-3.5-10.5c2.1-3.1,3.4-8.5,8.4-2.8c0.2,2.1,0.4,4.3,0.6,6.4
		C29.4,21.3,26.5,22.1,25.4,23.8z"/>
	<path class="st9" d="M39.7,18.6c1.9,1.9,2.8,4,0.9,6.5c-4.3,0.1-8.9,1.7-12.8-1.5c0.8-3.9,4.9-3,7.1-4.9
		C36.5,18.6,38.1,18.6,39.7,18.6z"/>
	<path class="st10" d="M27.3,12c-4.2-3.3-5.6,1.7-8.4,2.8c-0.4-4.7,0.3-9.1,3.3-13.3C25.2,4.6,27.1,7.9,27.3,12z"/>
	<path class="st11" d="M66.5,77.8c-1.2-0.2-1.8-0.8-1.6-2.1c5.2,0.3,6.6-1.8,3.9-6.3c0.8-0.8,1.6-0.9,2.5-0.2
		C76.8,75,76.7,75.2,66.5,77.8z"/>
	<path class="st12" d="M71.4,69.1c-0.8,0.1-1.7,0.2-2.5,0.2c-8.2-5.4-0.1-6.5,2.4-9.2c0.9,1.8,1.7,3.5,2.6,5.3
		C73,66.7,72.2,67.9,71.4,69.1z"/>
	<path class="st13" d="M53.5,91.8c1.1-1.9,2.8-2.7,4.9-2.9c-0.9,2.5,5.8,2.4,2.1,5.4C57.7,96.6,55.3,94.3,53.5,91.8z"/>
	<path class="st12" d="M34.8,18.7c-2.4,1.6-4.7,3.3-7.1,4.9c-0.8,0.1-1.6,0.1-2.4,0.2c0.8-1.8,1.7-3.6,2.5-5.4
		C30.2,18.5,32.5,18.6,34.8,18.7z"/>
	<path class="st14" d="M23.2,30.2c1.7,0.3,2.4,0.8,0.4,1.8C23.3,31.4,23.2,30.8,23.2,30.2z"/>
	<path class="st15" d="M53.9,36.3c0.7,0.1,1.3,0.1,2,0c0.1,3.5,0.5,7.7-4.2,8.1c-3.3,0.3-4.3-2.9-4.6-5.9c0,0,0.4,0.1,0.4,0.1
		C49.3,36.8,51.5,36.5,53.9,36.3z"/>
	<path class="st16" d="M40.9,28.1c4.7-0.8,6.7,1.4,6.2,6C42.8,34.5,40.6,32.6,40.9,28.1z"/>
	<path class="st17" d="M53.9,36.3c-1.6,2.3-4,2.2-6.4,2.3c0.7-1.5,1.3-2.9,2-4.4C51.3,34.3,53,34.4,53.9,36.3z"/>
</g>
<path class="st16" d="M20.9,28.2c3.1-0.6,4.4,1.2,4.1,5C22.1,33.6,20.7,32,20.9,28.2z"/>
<ellipse class="st16" cx="32.4" cy="36.8" rx="2.3" ry="2"/>
</svg>
